<?xml version="1.0" encoding="utf-8"?>
<!-- Generator: Adobe Illustrator 23.0.0, SVG Export Plug-In . SVG Version: 6.00 Build 0)  -->
<svg version="1.1" id="Layer_1" xmlns="http://www.w3.org/2000/svg" xmlns:xlink="http://www.w3.org/1999/xlink" x="0px" y="0px"
	 viewBox="0 0 2458 512" style="enable-background:new 0 0 2458 512;" xml:space="preserve">
<style type="text/css">
	.st0{fill:#1E88E5;}
	.st1{fill-rule:evenodd;clip-rule:evenodd;fill:#FFFFFF;}
</style>
<title>on_white</title>
<desc>Created with Sketch.</desc>
<g id="Logo_1_">
	<g id="woot-log_1_">
		<circle id="Oval_1_" class="st0" cx="256" cy="256" r="256"/>
		<g>
			<path class="st1" d="M179.8,284.7c5.3,4,11,7.5,17,10.4c6.2,3,12.8,5.2,19.5,6.8c3.1,0.7,6.2,1.2,9.3,1.6V295
				c-5.3-1.8-10.2-4.8-14.3-8.9l0,0c-7-7-10.9-16.3-10.9-26.3c0-9.9,3.9-19.2,10.9-26.3c7-7,16.3-10.9,26.3-10.9
				c5.8,0,11.4,1.3,16.4,3.8l42.1-42.3l23.2-23.3c-4.4-7.5-9.8-14.3-16.2-20.3c-8.4-8-18-14.3-28.6-18.8c-11.7-4.9-24.1-7.5-37-7.5
				c-19,0-37.4,5.6-53.1,16.2c-7.6,5.1-14.4,11.3-20.2,18.4c-5.9,7.1-10.6,15-14.2,23.4c-4.9,11.7-7.5,24.1-7.5,37
				c0,11.6,2,22.8,6.1,33.6c3.9,10.3,9.6,19.9,16.8,28.3C169.7,276.1,174.6,280.7,179.8,284.7z"/>
			<path class="st1" d="M343.7,221.3c-10.6-12.4-24-22.3-39.2-28.7l-49.2,49.4c-4.6-4.5-10.9-7.3-17.8-7.3c-7,0-13.3,2.8-17.8,7.4
				c-4.6,4.6-7.4,10.9-7.4,17.8s2.8,13.3,7.4,17.8c0,0,0,0,0,0c4.6,4.5,10.9,7.4,17.8,7.4v31.1c-16.4,0-31.9-3.7-45.8-10.3
				l-27.2,27.4c13.2,30.5,40.1,53.7,73.1,61.6c8.1,1.9,16.5,3,25.1,3c44.3,0,82.2-26.9,98.5-65.3c5.4-12.8,8.4-26.8,8.4-41.6
				C369.5,264.3,359.7,240,343.7,221.3z"/>
		</g>
	</g>
</g>
<g>
	<path class="st0" d="M778.9,192.7l-36.8,28.2c-9.9-14.1-18.6-22.4-34.9-22.4c-11.2,0-18.9,3.5-18.9,13.4c0,8,5.1,11.8,18.2,17.3
		l24.3,10.2c35.5,15,54.1,32.6,54.1,63.7c0,41.6-33.9,65.9-77.4,65.9c-38.7,0-69.1-18.9-84.2-47.4l37.1-28.2
		c10.6,13.8,23,27.2,47,27.2c14.4,0,21.8-5.1,21.8-15.4c0-9.9-6.4-13.1-21.4-19.5l-21.8-9.6c-33.6-15-53.4-33.9-53.4-63.7
		c0-37.4,31-62.4,73.9-62.4C743.7,150.1,766.4,168.3,778.9,192.7z"/>
	<path class="st0" d="M1013.8,365.1h-55v-84.5h-77.1v84.5h-55V153.9h55v77.1h77.1v-77.1h55V365.1z"/>
	<path class="st0" d="M1251.8,275.5c0,56.6-39.7,93.4-93.4,93.4s-93.4-36.8-93.4-93.4V153.9h55v125.8c0,24.3,15.7,38.7,38.4,38.7
		c22.7,0,38.4-14.4,38.4-38.7V153.9h55V275.5z"/>
	<path class="st0" d="M1379.2,153.9c40.3,0,71.4,25,71.4,62.4c0,14.4-4.5,26.2-13.1,35.5c21.8,8.6,35.5,25.3,35.5,50.6
		c0,37.1-30.7,62.7-71.4,62.7H1303V153.9H1379.2z M1355.8,200.3v37.1h19.8c13.1,0,21.1-7.4,21.1-18.6s-8-18.6-21.1-18.6H1355.8z
		 M1355.8,281.6v37.1h42.2c12.8,0,21.1-6.1,21.1-18.6s-8.3-18.6-21.1-18.6H1355.8z"/>
	<path class="st0" d="M1812.8,206.7l-41.9,28.5c-12.8-21.8-29.8-34.6-55-34.6c-33.3,0-57.6,23.7-57.6,59.2
		c0,35.5,24.3,58.6,57.6,58.6c25.3,0,42.2-12.8,55-34.6l41.9,28.5c-19.2,36.2-54.4,56.6-97,56.6c-64,0-113.9-47-113.9-109.4
		s50.2-109.4,114.2-109.4C1758.7,150.1,1793.6,170.6,1812.8,206.7z"/>
	<path class="st0" d="M1937.3,153.9c46.4,0,81.6,27.8,81.6,72.6c0,26.9-12.8,47.7-33.3,60.2l55.7,78.4h-61.4l-47.7-65.6h-22.7v65.6
		h-55V153.9H1937.3z M1909.4,201.9v49.6h28.2c15.4,0,25.3-9.9,25.3-25c0-15-9.9-24.6-25.3-24.6H1909.4z"/>
	<path class="st0" d="M2288.3,365.1h-55v-88.3l-43.8,50.9h-17.6l-43.5-50.9v88.3h-55v-215h17.6l89.9,109.8l89.9-109.8h17.6V365.1z"
		/>
</g>
</svg>
